<?xml version="1.0" standalone="no"?>
<!DOCTYPE svg PUBLIC "-//W3C//DTD SVG 1.1//EN" "http://www.w3.org/Graphics/SVG/1.1/DTD/svg11.dtd">

<svg width="731" height="570" version="1.1" xmlns="http://www.w3.org/2000/svg">
	<ellipse stroke="black" stroke-width="1" fill="none" cx="87.5" cy="266.5" rx="38" ry="38"/>
	<text x="78.5" y="272.5" font-family="Times New Roman" font-size="20">S&#8320;</text>
	<ellipse stroke="black" stroke-width="1" fill="none" cx="343.5" cy="40.5" rx="38" ry="38"/>
	<text x="334.5" y="46.5" font-family="Times New Roman" font-size="20">S&#8321;</text>
	<ellipse stroke="black" stroke-width="1" fill="none" cx="204.5" cy="233.5" rx="38" ry="38"/>
	<text x="195.5" y="239.5" font-family="Times New Roman" font-size="20">S&#8322;</text>
	<ellipse stroke="black" stroke-width="1" fill="none" cx="343.5" cy="452.5" rx="38" ry="38"/>
	<text x="334.5" y="458.5" font-family="Times New Roman" font-size="20">S&#8323;</text>
	<ellipse stroke="black" stroke-width="1" fill="none" cx="540.5" cy="233.5" rx="38" ry="38"/>
	<text x="529.5" y="239.5" font-family="Times New Roman" font-size="20">S&#8324; </text>
	<ellipse stroke="black" stroke-width="1" fill="none" cx="623.5" cy="68.5" rx="38" ry="38"/>
	<text x="614.5" y="74.5" font-family="Times New Roman" font-size="20">S&#8326;</text>
	<ellipse stroke="black" stroke-width="1" fill="none" cx="439.5" cy="283.5" rx="38" ry="38"/>
	<text x="430.5" y="289.5" font-family="Times New Roman" font-size="20">S&#8327;</text>
	<ellipse stroke="black" stroke-width="1" fill="none" cx="414.5" cy="530.5" rx="38" ry="38"/>
	<text x="403.5" y="536.5" font-family="Times New Roman" font-size="20">S&#8328; </text>
	<ellipse stroke="black" stroke-width="1" fill="none" cx="644.5" cy="241.5" rx="38" ry="38"/>
	<text x="635.5" y="247.5" font-family="Times New Roman" font-size="20">S&#8325;</text>
	<path stroke="black" stroke-width="1" fill="none" d="M 101.577,231.225 A 341.543,341.543 0 0 1 306.751,50.094"/>
	<polygon fill="black" stroke-width="1" points="306.751,50.094 297.605,47.782 300.665,57.302"/>
	<polygon stroke="black" stroke-width="1" points="124.073,256.185 167.927,243.815"/>
	<polygon fill="black" stroke-width="1" points="167.927,243.815 158.87,241.175 161.585,250.799"/>
	<path stroke="black" stroke-width="1" fill="none" d="M 379.663,52.068 A 270.054,270.054 0 0 1 528.192,197.581"/>
	<polygon fill="black" stroke-width="1" points="528.192,197.581 529.678,188.265 520.469,192.164"/>
	<path stroke="black" stroke-width="1" fill="none" d="M 381.381,43.233 A 333.422,333.422 0 0 1 627.46,207.558"/>
	<polygon fill="black" stroke-width="1" points="627.46,207.558 627.802,198.13 619.135,203.119"/>
	<path stroke="black" stroke-width="1" fill="none" d="M 211.198,196.137 A 236.397,236.397 0 0 1 310.185,58.694"/>
	<polygon fill="black" stroke-width="1" points="310.185,58.694 300.754,58.898 306.236,67.262"/>
	<path stroke="black" stroke-width="1" fill="none" d="M 403.936,296.714 A 195.254,195.254 0 0 1 231.604,260.048"/>
	<polygon fill="black" stroke-width="1" points="403.936,296.714 394.923,293.925 397.479,303.593"/>
	<path stroke="black" stroke-width="1" fill="none" d="M 310.137,434.396 A 233.277,233.277 0 0 1 206.68,271.395"/>
	<polygon fill="black" stroke-width="1" points="206.68,271.395 202.836,280.011 212.74,278.626"/>
	<path stroke="black" stroke-width="1" fill="none" d="M 239.95,219.851 A 418.657,418.657 0 0 1 505.05,219.851"/>
	<polygon fill="black" stroke-width="1" points="505.05,219.851 499.045,212.575 495.878,222.061"/>
	<path stroke="black" stroke-width="1" fill="none" d="M 629.672,276.463 A 317.126,317.126 0 0 1 381.424,450.484"/>
	<polygon fill="black" stroke-width="1" points="629.672,276.463 621.635,281.403 630.591,285.852"/>
	<path stroke="black" stroke-width="1" fill="none" d="M 333.151,415.941 A 689.486,689.486 0 0 1 333.151,77.059"/>
	<polygon fill="black" stroke-width="1" points="333.151,77.059 326.339,83.585 336.032,86.042"/>
	<path stroke="black" stroke-width="1" fill="none" d="M 450.507,319.84 A 277.702,277.702 0 0 1 432.566,497.103"/>
	<polygon fill="black" stroke-width="1" points="432.566,497.103 440.432,491.895 431.332,487.75"/>
	<path stroke="black" stroke-width="1" fill="none" d="M 540.966,271.479 A 358.669,358.669 0 0 1 442.134,504.442"/>
	<polygon fill="black" stroke-width="1" points="442.134,504.442 451.274,502.104 444.037,495.202"/>
	<path stroke="black" stroke-width="1" fill="none" d="M 643.932,279.466 A 278.33,278.33 0 0 1 451.37,521.425"/>
	<polygon fill="black" stroke-width="1" points="451.37,521.425 460.513,523.749 457.466,514.225"/>
	<path stroke="black" stroke-width="1" fill="none" d="M 652.326,93.208 A 259.262,259.262 0 0 1 452.089,535.836"/>
	<polygon fill="black" stroke-width="1" points="452.089,535.836 459.732,541.366 460.409,531.389"/>
	<path stroke="black" stroke-width="1" fill="none" d="M 376.6,532.856 A 291.083,291.083 0 0 1 93.187,304.045"/>
	<polygon fill="black" stroke-width="1" points="93.187,304.045 90.014,312.929 99.782,310.79"/>
	<path stroke="black" stroke-width="1" fill="none" d="M 380.953,34.14 A 462.747,462.747 0 0 1 588.048,54.849"/>
	<polygon fill="black" stroke-width="1" points="588.048,54.849 582.074,47.548 578.867,57.019"/>
	<path stroke="black" stroke-width="1" fill="none" d="M 56.209,287.799 A 28.5,28.5 0 1 1 51.561,254.619"/>
	<polygon fill="black" stroke-width="1" points="51.561,254.619 46.848,246.447 42.15,255.274"/>
	<path stroke="black" stroke-width="1" fill="none" d="M 305.864,447.438 A 298.692,298.692 0 0 1 103.943,300.73"/>
	<polygon fill="black" stroke-width="1" points="305.864,447.438 299,440.967 297.04,450.773"/>
</svg>
